# xmcd
#
# Track frame offsets:
#	183
#	13815
#	29443
#	44378
#	59033
#	74278
#	89388
#	103703
#	116855
#	130230
#	141553
#	155885
#	168515
#	183643
#	197715
#	209775
#	225138
#	236170
#
# Disc length: 3346 seconds
#
# Revision: 0
# Processed by: cddbd v1.4PL0 Copyright (c) Steve Scherf et al.
# Submitted via: audiograbber 1.80
#
DISCID=1a0d1012
DTITLE=Al Bowly with Ray Noble and the new mayfair Orchestra - The very thought o
DTITLE=f you
DYEAR=1900
DGENRE=
TTITLE0=A little white gardenia
TTITLE1=The very thought of you
TTITLE2=By the fireside
TTITLE3=Close your eyes
TTITLE4=Love is the sweetest thing
TTITLE5=I'll do my best to make you happy
TTITLE6=Rock your cares away
TTITLE7=Don't say goodbye
TTITLE8=Marching along together
TTITLE9=Got a date with an angel
TTITLE10=Good evening
TTITLE11=The echo of a song
TTITLE12=Bedtime story
TTITLE13=I was true
TTITLE14=Living in clover
TTITLE15=Goodnight vienna
TTITLE16=Shout for happiness
TTITLE17=Goodnight sweetheart
EXTD=
EXTT0=
EXTT1=
EXTT2=
EXTT3=
EXTT4=
EXTT5=
EXTT6=
EXTT7=
EXTT8=
EXTT9=
EXTT10=
EXTT11=
EXTT12=
EXTT13=
EXTT14=
EXTT15=
EXTT16=
EXTT17=
PLAYORDER=
